<svg xmlns="http://www.w3.org/2000/svg" viewBox="0 0 1200 360" role="img" aria-labelledby="title desc">
  <title id="title">Distributed Resource Scheduling System</title>
  <desc id="desc">Simple project thumbnail for a distributed resource scheduler.</desc>
  <defs>
    <linearGradient id="bg" x1="0" y1="0" x2="1" y2="1">
      <stop offset="0" stop-color="#26358b"/>
      <stop offset="1" stop-color="#10142d"/>
    </linearGradient>
  </defs>
  <rect width="1200" height="360" rx="28" fill="url(#bg)"/>
  <circle cx="1025" cy="80" r="190" fill="#ffffff" opacity="0.08"/>

  <g transform="translate(72 84)">
    <line x1="82" y1="54" x2="236" y2="54" stroke="#8fa8ff" stroke-width="8" stroke-linecap="round" opacity="0.75"/>
    <line x1="82" y1="54" x2="82" y2="176" stroke="#8fa8ff" stroke-width="8" stroke-linecap="round" opacity="0.75"/>
    <line x1="236" y1="54" x2="236" y2="176" stroke="#8fa8ff" stroke-width="8" stroke-linecap="round" opacity="0.75"/>
    <rect x="0" y="0" width="116" height="92" rx="24" fill="#80f7c8" opacity="0.18" stroke="#80f7c8" stroke-width="4"/>
    <rect x="202" y="0" width="116" height="92" rx="24" fill="#ffffff" opacity="0.12" stroke="#ffffff" stroke-width="3"/>
    <rect x="101" y="132" width="116" height="92" rx="24" fill="#80f7c8" opacity="0.18" stroke="#80f7c8" stroke-width="4"/>
    <text x="58" y="58" text-anchor="middle" fill="#80f7c8" font-family="Arial, Helvetica, sans-serif" font-size="32" font-weight="900">A</text>
    <text x="260" y="58" text-anchor="middle" fill="#ffffff" font-family="Arial, Helvetica, sans-serif" font-size="32" font-weight="900">B</text>
    <text x="159" y="190" text-anchor="middle" fill="#80f7c8" font-family="Arial, Helvetica, sans-serif" font-size="32" font-weight="900">C</text>
  </g>

  <text x="456" y="128" fill="#ffffff" font-family="Arial, Helvetica, sans-serif" font-size="50" font-weight="900">Distributed Resource</text>
  <text x="456" y="190" fill="#ffffff" font-family="Arial, Helvetica, sans-serif" font-size="50" font-weight="900">Scheduling System</text>
  <text x="456" y="244" fill="#dbe4ff" font-family="Arial, Helvetica, sans-serif" font-size="26" font-weight="700">Node.js • MySQL • REST APIs • Concurrency</text>

  <g font-family="Arial, Helvetica, sans-serif" font-size="22" font-weight="800">
    <rect x="456" y="274" width="178" height="42" rx="14" fill="#ffffff" opacity="0.13"/>
    <text x="545" y="303" text-anchor="middle" fill="#ffffff">Scheduling</text>
    <rect x="654" y="274" width="180" height="42" rx="14" fill="#ffffff" opacity="0.13"/>
    <text x="744" y="303" text-anchor="middle" fill="#ffffff">Allocation</text>
    <rect x="854" y="274" width="154" height="42" rx="14" fill="#ffffff" opacity="0.13"/>
    <text x="931" y="303" text-anchor="middle" fill="#ffffff">Live Query</text>
  </g>
</svg>
